<svg width="900" height="419" viewBox="0 0 900 419" fill="none" xmlns="http://www.w3.org/2000/svg">
<g clip-path="url(#clip0_153_2)">
<g clip-path="url(#clip1_153_2)">
<path d="M900 0H0V418.303H900V0Z" fill="#001220"/>
<path d="M0 274.359L13.7 268.777C27.3 263.131 54.7 251.966 82 253.551C109.3 255.137 136.7 269.475 163.8 268.206C191 266.937 218 250.062 245.2 245.368C272.3 240.737 299.7 248.35 327 246.89C354.3 245.368 381.7 234.837 409 236.106C436.3 237.375 463.7 250.443 491 258.5C518.3 266.556 545.7 269.475 573 271.314C600.3 273.091 627.7 273.725 654.8 277.024C682 280.259 709 286.222 736.2 286.73C763.3 287.238 790.7 282.416 818 273.852C845.3 265.288 872.7 252.981 886.3 246.89L900 240.737V419H886.3C872.7 419 845.3 419 818 419C790.7 419 763.3 419 736.2 419C709 419 682 419 654.8 419C627.7 419 600.3 419 573 419C545.7 419 518.3 419 491 419C463.7 419 436.3 419 409 419C381.7 419 354.3 419 327 419C299.7 419 272.3 419 245.2 419C218 419 191 419 163.8 419C136.7 419 109.3 419 82 419C54.7 419 27.3 419 13.7 419H0V274.359Z" fill="#C62368"/>
<path d="M0 243.313L13.7 240.872C27.3 238.432 54.7 233.552 82 237.735C109.3 241.918 136.7 255.164 163.8 259.836C191 264.437 218 260.533 245.2 257.953C272.3 255.374 299.7 254.258 327 260.393C354.3 266.528 381.7 280.053 409 283.958C436.3 287.932 463.7 282.354 491 274.894C518.3 267.504 545.7 258.162 573 258.162C600.3 258.162 627.7 267.504 654.8 269.247C682 270.99 709 265.134 736.2 260.254C763.3 255.374 790.7 251.469 818 253.631C845.3 255.862 872.7 264.228 886.3 268.411L900 272.594V419H886.3C872.7 419 845.3 419 818 419C790.7 419 763.3 419 736.2 419C709 419 682 419 654.8 419C627.7 419 600.3 419 573 419C545.7 419 518.3 419 491 419C463.7 419 436.3 419 409 419C381.7 419 354.3 419 327 419C299.7 419 272.3 419 245.2 419C218 419 191 419 163.8 419C136.7 419 109.3 419 82 419C54.7 419 27.3 419 13.7 419H0V243.313Z" fill="#D93D67"/>
<path d="M0 296.298L13.7 293.3C27.3 290.232 54.7 284.237 82 280.053C109.3 275.87 136.7 273.5 163.8 272.942C191 272.385 218 273.5 245.2 274.825C272.3 276.08 299.7 277.474 327 273.5C354.3 269.596 381.7 260.254 409 258.511C436.3 256.768 463.7 262.624 491 268.899C518.3 275.173 545.7 281.866 573 282.494C600.3 283.051 627.7 277.474 654.8 271.339C682 265.134 709 258.441 736.2 254.607C763.3 250.772 790.7 249.796 818 251.121C845.3 252.376 872.7 255.862 886.3 257.605L900 259.347V419H886.3C872.7 419 845.3 419 818 419C790.7 419 763.3 419 736.2 419C709 419 682 419 654.8 419C627.7 419 600.3 419 573 419C545.7 419 518.3 419 491 419C463.7 419 436.3 419 409 419C381.7 419 354.3 419 327 419C299.7 419 272.3 419 245.2 419C218 419 191 419 163.8 419C136.7 419 109.3 419 82 419C54.7 419 27.3 419 13.7 419H0V296.298Z" fill="#E95667"/>
<path d="M0 281.657L13.7 283.61C27.3 285.631 54.7 289.535 82 291.976C109.3 294.416 136.7 295.392 163.8 291.976C191 288.629 218 280.96 245.2 277.614C272.3 274.198 299.7 275.174 327 280.821C354.3 286.538 381.7 296.995 409 305.222C436.3 313.518 463.7 319.514 491 319.793C518.3 320.002 545.7 314.424 573 311.636C600.3 308.847 627.7 308.847 654.8 304.664C682 300.481 709 292.115 736.2 287.444C763.3 282.843 790.7 281.867 818 287.095C845.3 292.324 872.7 303.758 886.3 309.405L900 315.122V419H886.3C872.7 419 845.3 419 818 419C790.7 419 763.3 419 736.2 419C709 419 682 419 654.8 419C627.7 419 600.3 419 573 419C545.7 419 518.3 419 491 419C463.7 419 436.3 419 409 419C381.7 419 354.3 419 327 419C299.7 419 272.3 419 245.2 419C218 419 191 419 163.8 419C136.7 419 109.3 419 82 419C54.7 419 27.3 419 13.7 419H0V281.657Z" fill="#F76D68"/>
<path d="M0 296.995L13.7 298.041C27.3 299.087 54.7 301.178 82 307.104C109.3 313.03 136.7 322.79 163.8 324.673C191 326.485 218 320.49 245.2 321.605C272.3 322.79 299.7 331.157 327 335.13C354.3 339.035 381.7 338.616 409 334.433C436.3 330.25 463.7 322.302 491 322.302C518.3 322.302 545.7 330.25 573 334.642C600.3 339.035 627.7 340.011 654.8 336.734C682 333.457 709 326.067 736.2 320.908C763.3 315.819 790.7 313.03 818 315.958C845.3 318.817 872.7 327.461 886.3 331.714L900 336.037V419H886.3C872.7 419 845.3 419 818 419C790.7 419 763.3 419 736.2 419C709 419 682 419 654.8 419C627.7 419 600.3 419 573 419C545.7 419 518.3 419 491 419C463.7 419 436.3 419 409 419C381.7 419 354.3 419 327 419C299.7 419 272.3 419 245.2 419C218 419 191 419 163.8 419C136.7 419 109.3 419 82 419C54.7 419 27.3 419 13.7 419H0V296.995Z" fill="#FA7268"/>
<path d="M0 355.557L13.7 353.257C27.3 350.886 54.7 346.285 82 345.239C109.3 344.193 136.7 346.703 163.8 344.263C191 341.823 218 334.433 245.2 334.851C272.3 335.339 299.7 343.705 327 344.89C354.3 346.006 381.7 340.01 409 334.851C436.3 329.762 463.7 325.579 491 323.348C518.3 321.187 545.7 320.908 573 320.838C600.3 320.699 627.7 320.699 654.8 321.047C682 321.396 709 322.093 736.2 322.79C763.3 323.487 790.7 324.184 818 323.696C845.3 323.278 872.7 321.605 886.3 320.838L900 320.001V419H886.3C872.7 419 845.3 419 818 419C790.7 419 763.3 419 736.2 419C709 419 682 419 654.8 419C627.7 419 600.3 419 573 419C545.7 419 518.3 419 491 419C463.7 419 436.3 419 409 419C381.7 419 354.3 419 327 419C299.7 419 272.3 419 245.2 419C218 419 191 419 163.8 419C136.7 419 109.3 419 82 419C54.7 419 27.3 419 13.7 419H0V355.557Z" fill="#F76D68"/>
<path d="M0 355.557L13.7 358.207C27.3 360.925 54.7 366.224 82 364.481C109.3 362.738 136.7 353.954 163.8 350.328C191 346.703 218 348.376 245.2 349.143C272.3 349.98 299.7 349.98 327 348.934C354.3 347.888 381.7 345.797 409 348.376C436.3 350.886 463.7 358.137 491 360.437C518.3 362.738 545.7 360.228 573 360.926C600.3 361.623 627.7 365.527 654.8 365.875C682 366.224 709 363.017 736.2 360.228C763.3 357.44 790.7 355.069 818 352.769C845.3 350.468 872.7 348.098 886.3 346.982L900 345.797V419H886.3C872.7 419 845.3 419 818 419C790.7 419 763.3 419 736.2 419C709 419 682 419 654.8 419C627.7 419 600.3 419 573 419C545.7 419 518.3 419 491 419C463.7 419 436.3 419 409 419C381.7 419 354.3 419 327 419C299.7 419 272.3 419 245.2 419C218 419 191 419 163.8 419C136.7 419 109.3 419 82 419C54.7 419 27.3 419 13.7 419H0V355.557Z" fill="#E95667"/>
<path d="M0 381.089L13.7 377.443C27.3 373.798 54.7 366.507 82 363.81C109.3 361.185 136.7 363.081 163.8 364.175C191 365.268 218 365.56 245.2 366.289C272.3 367.018 299.7 368.184 327 367.601C354.3 367.018 381.7 364.539 409 367.455C436.3 370.372 463.7 378.683 491 377.589C518.3 376.496 545.7 365.997 573 362.498C600.3 358.998 627.7 362.352 654.8 366.653C682 370.882 709 375.985 736.2 375.621C763.3 375.256 790.7 369.424 818 368.84C845.3 368.184 872.7 372.85 886.3 375.11L900 377.443V419H886.3C872.7 419 845.3 419 818 419C790.7 419 763.3 419 736.2 419C709 419 682 419 654.8 419C627.7 419 600.3 419 573 419C545.7 419 518.3 419 491 419C463.7 419 436.3 419 409 419C381.7 419 354.3 419 327 419C299.7 419 272.3 419 245.2 419C218 419 191 419 163.8 419C136.7 419 109.3 419 82 419C54.7 419 27.3 419 13.7 419H0V381.089Z" fill="#D93D67"/>
<path d="M0 394.599L13.7 393.902C27.3 393.204 54.7 391.81 82 391.95C109.3 392.019 136.7 393.692 163.8 393.553C191 393.414 218 391.601 245.2 391.95C272.3 392.298 299.7 394.808 327 394.808C354.3 394.808 381.7 392.298 409 392.647C436.3 392.995 463.7 396.202 491 395.854C518.3 395.505 545.7 391.601 573 391.252C600.3 390.904 627.7 394.111 654.8 395.296C682 396.481 709 395.505 736.2 396.202C763.3 396.899 790.7 399.27 818 398.224C845.3 397.178 872.7 392.716 886.3 390.555L900 388.324V419H886.3C872.7 419 845.3 419 818 419C790.7 419 763.3 419 736.2 419C709 419 682 419 654.8 419C627.7 419 600.3 419 573 419C545.7 419 518.3 419 491 419C463.7 419 436.3 419 409 419C381.7 419 354.3 419 327 419C299.7 419 272.3 419 245.2 419C218 419 191 419 163.8 419C136.7 419 109.3 419 82 419C54.7 419 27.3 419 13.7 419H0V394.599Z" fill="#C62368"/>
<g filter="url(#filter0_f_153_2)">
<path d="M197.5 146L206.144 169.148H234.116L211.486 183.454L220.13 206.602L197.5 192.296L174.87 206.602L183.514 183.454L160.884 169.148H188.856L197.5 146Z" fill="#FF1B6B" fill-opacity="0.71"/>
</g>
<g filter="url(#filter1_f_153_2)">
<path d="M445.5 85L454.144 108.148H482.116L459.486 122.454L468.13 145.602L445.5 131.296L422.87 145.602L431.514 122.454L408.884 108.148H436.856L445.5 85Z" fill="#BF0FFF"/>
</g>
<g filter="url(#filter2_f_153_2)">
<path d="M704.5 146L713.144 169.148H741.116L718.486 183.454L727.13 206.602L704.5 192.296L681.87 206.602L690.514 183.454L667.884 169.148H695.856L704.5 146Z" fill="#FF930F"/>
</g>
<path d="M202.655 168.783C202.005 168.783 201.68 168.458 201.68 167.808V117.771C201.68 117.121 202.005 116.796 202.655 116.796H213.692C214.342 116.796 214.667 117.121 214.667 117.771V136.296H224.3V117.771C224.3 117.121 224.625 116.796 225.275 116.796H236.312C236.962 116.796 237.287 117.121 237.287 117.771V167.808C237.287 168.458 236.962 168.783 236.312 168.783H225.275C224.625 168.783 224.3 168.458 224.3 167.808V146.67H214.667V167.808C214.667 168.458 214.342 168.783 213.692 168.783H202.655ZM247.596 168.783C246.946 168.783 246.621 168.458 246.621 167.808V126.858C246.621 126.208 246.946 125.883 247.596 125.883H257.97C258.62 125.883 258.945 126.208 258.945 126.858V167.808C258.945 168.458 258.62 168.783 257.97 168.783H247.596ZM247.401 122.646C246.881 122.646 246.621 122.386 246.621 121.866V116.913C246.621 116.393 246.881 116.133 247.401 116.133H258.243C258.711 116.133 258.945 116.393 258.945 116.913V121.866C258.945 122.386 258.711 122.646 258.243 122.646H247.401ZM268.416 175.803C267.714 175.803 267.363 175.452 267.363 174.75V169.29C267.363 168.614 267.714 168.276 268.416 168.276H271.263C272.043 168.276 272.433 167.951 272.433 167.301V166.131H267.441C266.791 166.131 266.466 165.78 266.466 165.078L266.544 155.211C266.544 154.509 266.882 154.158 267.558 154.158H279.921C280.571 154.158 280.896 154.509 280.896 155.211V167.145C280.896 170.057 280.207 172.228 278.829 173.658C277.451 175.088 275.605 175.803 273.291 175.803H268.416ZM302.059 168.783C301.409 168.783 301.084 168.458 301.084 167.808V117.771C301.084 117.121 301.409 116.796 302.059 116.796H313.096C313.746 116.796 314.071 117.121 314.071 117.771V167.808C314.071 168.458 313.746 168.783 313.096 168.783H302.059ZM345.569 168.783C344.971 168.783 344.451 168.562 344.009 168.12L336.209 160.32C335.767 159.904 335.546 159.384 335.546 158.76V135.906C335.546 135.282 335.767 134.762 336.209 134.346L344.009 126.546C344.451 126.104 344.971 125.883 345.569 125.883H366.434C367.084 125.883 367.409 126.208 367.409 126.858V167.808C367.409 168.458 367.084 168.783 366.434 168.783H358.322C357.984 168.783 357.724 168.718 357.542 168.588C357.386 168.458 357.204 168.302 356.996 168.12L355.046 166.17L353.096 168.12C352.68 168.562 352.16 168.783 351.536 168.783H345.569ZM350.132 159.696H352.862C353.694 159.696 354.266 159.527 354.578 159.189C354.89 158.851 355.046 158.253 355.046 157.395V134.97H350.132C349.274 134.97 348.689 135.139 348.377 135.477C348.065 135.815 347.909 136.413 347.909 137.271V157.395C347.909 158.253 348.065 158.851 348.377 159.189C348.689 159.527 349.274 159.696 350.132 159.696ZM377.469 168.783C376.819 168.783 376.494 168.458 376.494 167.808V126.858C376.494 126.208 376.819 125.883 377.469 125.883H395.214C395.812 125.883 396.332 126.104 396.774 126.546L401.571 131.343H403.014L407.811 126.546C408.253 126.104 408.773 125.883 409.371 125.883H417.834C418.432 125.883 418.952 126.104 419.394 126.546L427.194 134.346C427.636 134.762 427.857 135.282 427.857 135.906V167.808C427.857 168.458 427.532 168.783 426.882 168.783H416.469C415.819 168.783 415.494 168.458 415.494 167.808V137.271C415.494 136.179 414.948 135.633 413.856 135.633H408.357V167.808C408.357 168.458 408.032 168.783 407.382 168.783H396.969C396.319 168.783 395.994 168.458 395.994 167.808V137.271C395.994 136.179 395.448 135.633 394.356 135.633H388.857V167.808C388.857 168.458 388.532 168.783 387.882 168.783H377.469ZM450.366 168.783C449.716 168.783 449.391 168.458 449.391 167.808V125.493C449.391 124.895 449.612 124.375 450.054 123.933L456.528 117.42C456.97 117.004 457.49 116.796 458.088 116.796H467.019C467.617 116.796 468.137 117.004 468.579 117.42L475.131 124.011H476.964L483.516 117.42C483.958 117.004 484.478 116.796 485.076 116.796H493.968C494.592 116.796 495.112 117.004 495.528 117.42L502.041 123.933C502.483 124.375 502.704 124.895 502.704 125.493V167.808C502.704 168.458 502.379 168.783 501.729 168.783H490.653C490.003 168.783 489.678 168.458 489.678 167.808V127.17H482.541V167.808C482.541 168.458 482.216 168.783 481.566 168.783H470.529C469.879 168.783 469.554 168.458 469.554 167.808V127.17H462.378V167.808C462.378 168.458 462.053 168.783 461.403 168.783H450.366ZM521.83 168.783C521.232 168.783 520.712 168.562 520.27 168.12L512.47 160.32C512.028 159.904 511.807 159.384 511.807 158.76V135.906C511.807 135.282 512.028 134.762 512.47 134.346L520.27 126.546C520.712 126.104 521.232 125.883 521.83 125.883H542.695C543.345 125.883 543.67 126.208 543.67 126.858V167.808C543.67 168.458 543.345 168.783 542.695 168.783H534.583C534.245 168.783 533.985 168.718 533.803 168.588C533.647 168.458 533.465 168.302 533.257 168.12L531.307 166.17L529.357 168.12C528.941 168.562 528.421 168.783 527.797 168.783H521.83ZM526.393 159.696H529.123C529.955 159.696 530.527 159.527 530.839 159.189C531.151 158.851 531.307 158.253 531.307 157.395V134.97H526.393C525.535 134.97 524.95 135.139 524.638 135.477C524.326 135.815 524.17 136.413 524.17 137.271V157.395C524.17 158.253 524.326 158.851 524.638 159.189C524.95 159.527 525.535 159.696 526.393 159.696ZM553.731 168.783C553.081 168.783 552.756 168.458 552.756 167.808V126.858C552.756 126.208 553.081 125.883 553.731 125.883H574.596C575.194 125.883 575.714 126.104 576.156 126.546L583.956 134.346C584.398 134.762 584.619 135.282 584.619 135.906V167.808C584.619 168.458 584.294 168.783 583.644 168.783H573.231C572.581 168.783 572.256 168.458 572.256 167.808V137.466C572.256 136.244 571.645 135.633 570.423 135.633H565.119V167.808C565.119 168.458 564.794 168.783 564.144 168.783H553.731ZM603.487 168.783C602.889 168.783 602.369 168.562 601.927 168.12L594.127 160.32C593.685 159.904 593.464 159.384 593.464 158.76V135.906C593.464 135.282 593.685 134.762 594.127 134.346L601.927 126.546C602.369 126.104 602.889 125.883 603.487 125.883H624.352C625.002 125.883 625.327 126.208 625.327 126.858V167.808C625.327 168.458 625.002 168.783 624.352 168.783H616.24C615.902 168.783 615.642 168.718 615.46 168.588C615.304 168.458 615.122 168.302 614.914 168.12L612.964 166.17L611.014 168.12C610.598 168.562 610.078 168.783 609.454 168.783H603.487ZM608.05 159.696H610.78C611.612 159.696 612.184 159.527 612.496 159.189C612.808 158.851 612.964 158.253 612.964 157.395V134.97H608.05C607.192 134.97 606.607 135.139 606.295 135.477C605.983 135.815 605.827 136.413 605.827 137.271V157.395C605.827 158.253 605.983 158.851 606.295 159.189C606.607 159.527 607.192 159.696 608.05 159.696ZM634.178 168.783C633.528 168.783 633.203 168.458 633.203 167.808V161.49C633.203 160.892 633.398 160.502 633.788 160.32L641.744 155.601V151.545L633.788 147.255C633.398 147.021 633.203 146.618 633.203 146.046V133.605C633.203 133.319 633.242 133.085 633.32 132.903C633.424 132.721 633.567 132.565 633.749 132.435L642.056 126.351C642.342 126.143 642.576 126.013 642.758 125.961C642.94 125.909 643.122 125.883 643.304 125.883H652.781C653.431 125.883 653.756 126.208 653.756 126.858V132.981C653.756 133.423 653.717 133.722 653.639 133.878C653.587 134.034 653.457 134.164 653.249 134.268L645.878 138.246V142.77L653.756 146.67C654.198 146.852 654.419 147.242 654.419 147.84V159.813C654.419 160.463 654.198 160.983 653.756 161.373L645.449 168.276C645.033 168.614 644.513 168.783 643.889 168.783H634.178ZM672.346 168.783C671.748 168.783 671.228 168.562 670.786 168.12L662.986 160.32C662.544 159.904 662.323 159.384 662.323 158.76V126.858C662.323 126.208 662.648 125.883 663.298 125.883H673.711C674.361 125.883 674.686 126.208 674.686 126.858V159.033H681.823V126.858C681.823 126.208 682.148 125.883 682.798 125.883H693.211C693.861 125.883 694.186 126.208 694.186 126.858V158.76C694.186 159.384 693.965 159.904 693.523 160.32L685.723 168.12C685.307 168.562 684.787 168.783 684.163 168.783H672.346ZM704.247 168.783C703.597 168.783 703.272 168.458 703.272 167.808V126.858C703.272 126.208 703.597 125.883 704.247 125.883H714.621C715.271 125.883 715.596 126.208 715.596 126.858V167.808C715.596 168.458 715.271 168.783 714.621 168.783H704.247ZM704.052 122.646C703.532 122.646 703.272 122.386 703.272 121.866V116.913C703.272 116.393 703.532 116.133 704.052 116.133H714.894C715.362 116.133 715.596 116.393 715.596 116.913V121.866C715.596 122.386 715.362 122.646 714.894 122.646H704.052Z" fill="white"/>
<g filter="url(#filter3_f_153_2)">
<path d="M861 46L865.266 62.2381H879.07L867.902 72.2738L872.168 88.5119L861 78.4762L849.832 88.5119L854.098 72.2738L842.93 62.2381H856.734L861 46Z" fill="white"/>
</g>
<g filter="url(#filter4_f_153_2)">
<path d="M19 56L23.2658 72.2381H37.0701L25.9022 82.2738L30.1679 98.5119L19 88.4762L7.83208 98.5119L12.0978 82.2738L0.929926 72.2381H14.7342L19 56Z" fill="white"/>
</g>
<g filter="url(#filter5_f_153_2)">
<path d="M532 -15L536.266 1.2381H550.07L538.902 11.2738L543.168 27.5119L532 17.4762L520.832 27.5119L525.098 11.2738L513.93 1.2381H527.734L532 -15Z" fill="white"/>
</g>
<path d="M532 225.834C534.098 225.367 536.196 224.901 548.816 222.213C561.435 219.525 584.513 214.63 599.198 211.992C613.884 209.354 619.479 209.12 621.662 209C622.454 208.957 604.92 213.076 580.084 219.667C570.323 222.257 568.04 223.707 566.503 224.65C561.223 227.891 586.801 223.721 594.12 223.012C591.647 223.7 585.24 225.586 580.656 227.352C578.636 227.953 577.237 227.953 575.796 227.953" stroke="#B69393" stroke-width="2" stroke-linecap="round"/>
<path d="M268.065 206.113C267.3 204.88 266.61 203.609 265.993 202.302C265.376 200.97 264.747 199.663 264.106 198.38C263.415 196.974 262.725 195.58 262.034 194.199C261.343 192.793 260.665 191.375 259.999 189.944C259.876 189.673 259.814 189.377 259.814 189.056C259.814 188.735 259.789 188.415 259.74 188.094C260.085 188.119 260.443 188.119 260.813 188.094C261.183 188.069 261.454 188.156 261.627 188.353C262.071 188.822 262.478 189.34 262.848 189.907C263.218 190.45 263.539 191.005 263.81 191.572C264.649 193.323 265.463 195.099 266.252 196.9C267.041 198.676 267.831 200.452 268.62 202.228C268.743 202.499 268.879 202.758 269.027 203.005C269.2 203.252 269.372 203.511 269.545 203.782H270.137L273.208 194.384C273.381 193.841 273.529 193.299 273.652 192.756C273.8 192.189 273.997 191.658 274.244 191.165C274.367 190.918 274.528 190.647 274.725 190.351C274.947 190.055 275.157 189.808 275.354 189.611C275.576 189.389 275.749 189.303 275.872 189.352C276.365 189.451 276.871 189.66 277.389 189.981C277.907 190.277 278.302 190.635 278.573 191.054C279.288 192.115 279.93 193.237 280.497 194.421C281.064 195.58 281.693 196.703 282.384 197.788C282.976 198.701 283.617 199.589 284.308 200.452C284.999 201.291 285.677 202.142 286.343 203.005C286.466 202.98 286.577 202.956 286.676 202.931C286.799 202.906 286.91 202.882 287.009 202.857C287.157 201.698 287.305 200.538 287.453 199.379C287.626 198.195 287.774 197.023 287.897 195.864C288.094 194.236 288.279 192.608 288.452 190.98C288.625 189.327 288.822 187.699 289.044 186.096C289.093 185.751 289.254 185.442 289.525 185.171C289.796 184.875 290.031 184.579 290.228 184.283C290.376 184.604 290.549 184.937 290.746 185.282C290.968 185.627 291.079 185.973 291.079 186.318C290.956 188.711 290.808 191.103 290.635 193.496C290.487 195.864 290.314 198.244 290.117 200.637C290.043 201.895 289.796 203.128 289.377 204.337C288.982 205.496 288.403 206.175 287.638 206.372C286.898 206.569 286.121 206.212 285.307 205.299C284.246 204.041 283.186 202.746 282.125 201.414C281.089 200.082 280.176 198.688 279.387 197.233C279.165 196.789 278.98 196.481 278.832 196.308C278.709 196.111 278.585 195.926 278.462 195.753C278.339 195.58 278.178 195.321 277.981 194.976C277.882 194.779 277.648 194.495 277.278 194.125C276.933 193.755 276.624 193.484 276.353 193.311C275.884 194.939 275.428 196.493 274.984 197.973C274.565 199.428 274.121 200.896 273.652 202.376C273.455 202.968 273.22 203.548 272.949 204.115C272.678 204.682 272.382 205.25 272.061 205.817C271.469 206.878 270.815 207.445 270.1 207.519C269.385 207.593 268.706 207.124 268.065 206.113ZM302.001 208.296C301.088 208.296 300.287 208.259 299.596 208.185C298.93 208.111 298.153 207.803 297.265 207.26C296.352 206.668 295.538 205.903 294.823 204.966C294.132 204.004 293.701 202.993 293.528 201.932C293.503 200.871 293.503 200.008 293.528 199.342C293.577 198.676 293.688 198.096 293.861 197.603C294.058 197.085 294.33 196.567 294.675 196.049C295.538 194.52 296.624 193.262 297.931 192.275C299.263 191.264 300.681 190.758 302.186 190.758C302.655 190.758 303.062 190.857 303.407 191.054C304.468 191.227 305.183 191.708 305.553 192.497C305.923 193.286 305.923 194.113 305.553 194.976C305.084 195.913 304.431 196.715 303.592 197.381C302.778 198.047 301.767 198.688 300.558 199.305C299.349 199.922 297.894 200.662 296.192 201.525C296.365 202.98 297.08 204.103 298.338 204.892C299.596 205.681 301.236 205.99 303.259 205.817C304.172 205.743 304.998 205.62 305.738 205.447C306.478 205.274 307.07 205.237 307.514 205.336C307.958 205.41 308.18 205.805 308.18 206.52C308.18 206.841 307.946 207.112 307.477 207.334C307.008 207.556 306.429 207.741 305.738 207.889C305.072 208.037 304.394 208.136 303.703 208.185C303.012 208.259 302.445 208.296 302.001 208.296ZM296.081 198.935C297.684 198.392 299.115 197.726 300.373 196.937C301.631 196.123 302.531 195.001 303.074 193.57C302.827 193.545 302.593 193.533 302.371 193.533C302.174 193.508 301.976 193.496 301.779 193.496C299.485 193.496 297.586 195.309 296.081 198.935ZM316.66 210.183C316.463 210.257 316.253 210.245 316.031 210.146C315.809 210.072 315.649 209.986 315.55 209.887C315.18 209.344 314.798 208.802 314.403 208.259C314.033 207.741 313.725 207.186 313.478 206.594C312.985 205.435 312.652 204.238 312.479 203.005C312.306 201.747 312.195 200.489 312.146 199.231C312.047 196.394 311.961 193.57 311.887 190.758C311.838 187.921 311.776 185.085 311.702 182.248C311.628 181.36 312.047 180.916 312.96 180.916C313.379 180.916 313.725 181.089 313.996 181.434C314.292 181.779 314.44 182.174 314.44 182.618L314.292 190.647C314.415 192.497 314.514 194.347 314.588 196.197C314.662 198.047 314.785 199.897 314.958 201.747C315.057 202.906 315.229 204.078 315.476 205.262C315.723 206.421 316.179 207.507 316.845 208.518C317.018 208.715 317.067 208.974 316.993 209.295C316.944 209.616 316.833 209.912 316.66 210.183ZM326.359 209.887C324.879 209.887 323.72 209.48 322.881 208.666C322.042 207.877 321.327 206.853 320.735 205.595C320.118 204.337 319.81 203.079 319.81 201.821C319.81 200.711 320.044 199.638 320.513 198.602C320.982 197.566 321.623 196.567 322.437 195.605C322.832 195.161 323.239 194.754 323.658 194.384C324.077 193.989 324.46 193.632 324.805 193.311C325.496 192.818 326.174 192.485 326.84 192.312C327.506 192.115 328.197 192.016 328.912 192.016C329.085 192.016 329.257 192.028 329.43 192.053C329.627 192.053 329.812 192.065 329.985 192.09C330.848 192.189 331.28 192.929 331.28 194.31C331.132 194.705 330.959 195.013 330.762 195.235C330.565 195.457 330.269 195.63 329.874 195.753C329.455 195.827 329.048 195.728 328.653 195.457C328.283 195.161 327.864 195.001 327.395 194.976C326.778 195.173 326.149 195.605 325.508 196.271C324.891 196.937 324.349 197.591 323.88 198.232C322.597 199.934 322.252 201.92 322.844 204.189C323.115 205.176 323.522 206.014 324.065 206.705C324.632 207.371 325.409 207.704 326.396 207.704C327.111 207.704 327.691 207.568 328.135 207.297C328.579 207.026 328.998 206.742 329.393 206.446C329.788 206.15 330.232 205.977 330.725 205.928C331.046 205.829 331.305 205.891 331.502 206.113C331.724 206.335 331.823 206.619 331.798 206.964C331.798 207.309 331.625 207.63 331.28 207.926C330.663 208.518 330.145 208.95 329.726 209.221C329.331 209.492 328.887 209.665 328.394 209.739C327.925 209.838 327.247 209.887 326.359 209.887ZM340.551 207.223C339.737 207.223 338.947 207.013 338.183 206.594C337.27 206.051 336.518 205.385 335.926 204.596C335.334 203.782 334.902 202.919 334.631 202.006C334.458 201.414 334.372 200.76 334.372 200.045C334.372 198.688 334.68 197.369 335.297 196.086C335.667 195.371 336.259 195.013 337.073 195.013C337.196 195.013 337.319 195.013 337.443 195.013C337.591 195.013 337.739 195.038 337.887 195.087C338.084 195.062 338.269 195.05 338.442 195.05C338.639 195.025 338.812 194.964 338.96 194.865C339.675 194.47 340.378 194.273 341.069 194.273C341.71 194.273 342.314 194.409 342.882 194.68C343.474 194.927 344.041 195.26 344.584 195.679C345.299 196.197 345.792 196.801 346.064 197.492C346.335 198.158 346.471 198.873 346.471 199.638C346.471 199.811 346.471 200.008 346.471 200.23C346.471 200.427 346.446 200.625 346.397 200.822C346.249 201.685 345.965 202.499 345.546 203.264C345.151 204.029 344.682 204.769 344.14 205.484C343.72 206.051 343.19 206.483 342.549 206.779C341.907 207.075 341.241 207.223 340.551 207.223ZM340.07 204.966C340.489 204.966 340.896 204.818 341.291 204.522C342.08 203.881 342.697 203.153 343.141 202.339C343.585 201.525 343.905 200.699 344.103 199.86C344.127 199.243 343.967 198.639 343.622 198.047C343.301 197.455 342.931 197.06 342.512 196.863C342.142 196.69 341.747 196.604 341.328 196.604C340.711 196.604 340.07 196.838 339.404 197.307C338.565 197.924 337.961 198.516 337.591 199.083C337.245 199.626 337.073 200.181 337.073 200.748C337.073 201.217 337.171 201.698 337.369 202.191C337.591 202.66 337.862 203.165 338.183 203.708C338.454 204.127 338.75 204.448 339.071 204.67C339.416 204.867 339.749 204.966 340.07 204.966ZM352.214 208.481C351.745 208.358 351.363 208.111 351.067 207.741C350.796 207.371 350.623 206.952 350.549 206.483C350.426 205.62 350.315 204.756 350.216 203.893C350.142 203.03 350.08 202.179 350.031 201.34C349.957 200.033 349.908 198.725 349.883 197.418C349.883 196.111 349.858 194.816 349.809 193.533C349.809 193.163 349.821 192.818 349.846 192.497C349.895 192.176 350.142 191.967 350.586 191.868C351.03 191.794 351.388 191.88 351.659 192.127C351.93 192.349 352.091 192.67 352.14 193.089C352.313 194.15 352.424 195.013 352.473 195.679C352.547 196.345 352.572 196.974 352.547 197.566C352.547 198.133 352.535 198.799 352.51 199.564C352.51 200.304 352.522 201.291 352.547 202.524C352.646 203.412 352.707 204.016 352.732 204.337C352.781 204.633 352.806 204.781 352.806 204.781C352.831 204.781 352.843 204.781 352.843 204.781C353.016 204.51 353.262 204.14 353.583 203.671C353.928 203.178 354.163 202.783 354.286 202.487C354.779 201.476 355.26 200.464 355.729 199.453C356.198 198.442 356.679 197.443 357.172 196.456C357.369 196.111 357.579 195.765 357.801 195.42C358.023 195.075 358.257 194.766 358.504 194.495C359.17 193.73 359.898 193.422 360.687 193.57C361.476 193.718 362.044 194.261 362.389 195.198C362.512 195.519 362.623 195.938 362.722 196.456C362.845 196.974 362.956 197.517 363.055 198.084C363.154 198.651 363.24 199.157 363.314 199.601C363.413 200.045 363.474 200.341 363.499 200.489C363.573 200.81 363.659 201.143 363.758 201.488C363.881 201.833 364.029 202.265 364.202 202.783C364.399 202.364 364.646 201.821 364.942 201.155C365.263 200.489 365.583 199.786 365.904 199.046C366.225 198.306 366.521 197.628 366.792 197.011C367.063 196.394 367.261 195.926 367.384 195.605C367.507 195.284 367.52 195.21 367.421 195.383C367.717 194.816 368.075 194.347 368.494 193.977C368.938 193.607 369.493 193.422 370.159 193.422C370.899 193.422 371.429 193.669 371.75 194.162C372.095 194.631 372.354 195.136 372.527 195.679C372.946 196.888 373.329 198.096 373.674 199.305C374.019 200.514 374.389 201.735 374.784 202.968C374.858 203.338 374.944 203.696 375.043 204.041C375.142 204.386 375.24 204.756 375.339 205.151C375.462 205.718 375.524 206.138 375.524 206.409C375.549 206.656 375.475 206.853 375.302 207.001C375.154 207.124 374.858 207.297 374.414 207.519C374.241 207.544 374.044 207.457 373.822 207.26C373.6 207.038 373.452 206.841 373.378 206.668C372.983 205.558 372.589 204.448 372.194 203.338C371.824 202.203 371.429 201.106 371.01 200.045C370.862 199.576 370.689 199.108 370.492 198.639C370.295 198.17 370.085 197.665 369.863 197.122C369.444 197.517 369.148 197.936 368.975 198.38C368.827 198.824 368.679 199.28 368.531 199.749C368.186 200.859 367.754 201.92 367.236 202.931C366.743 203.918 366.138 204.88 365.423 205.817C364.757 206.68 364.128 207.087 363.536 207.038C362.944 206.989 362.414 206.471 361.945 205.484C361.723 204.991 361.55 204.473 361.427 203.93C361.328 203.387 361.205 202.845 361.057 202.302C360.909 201.463 360.81 200.847 360.761 200.452C360.712 200.033 360.662 199.712 360.613 199.49C360.564 199.268 360.465 199.009 360.317 198.713C360.194 198.392 359.984 197.924 359.688 197.307C359.219 198.244 358.751 199.182 358.282 200.119C357.838 201.056 357.369 201.994 356.876 202.931C356.481 203.671 356.062 204.399 355.618 205.114C355.199 205.829 354.767 206.545 354.323 207.26C354.101 207.63 353.817 207.951 353.472 208.222C353.151 208.493 352.732 208.58 352.214 208.481ZM381.588 206.446C380.7 205.533 380.022 204.645 379.553 203.782C379.109 202.894 378.887 201.92 378.887 200.859C378.887 199.65 379.023 198.553 379.294 197.566C379.59 196.555 379.948 195.519 380.367 194.458C380.984 193.249 381.773 192.312 382.735 191.646C383.697 190.98 384.931 190.709 386.435 190.832C386.756 190.832 387.114 190.906 387.508 191.054C387.903 191.177 388.261 191.325 388.581 191.498C389.173 191.769 389.543 192.275 389.691 193.015C389.839 193.73 389.778 194.409 389.506 195.05C388.89 196.53 387.989 197.776 386.805 198.787C385.621 199.798 384.289 200.649 382.809 201.34C382.365 201.562 382.18 201.87 382.254 202.265C382.328 202.66 382.513 203.054 382.809 203.449C383.056 203.77 383.364 204.115 383.734 204.485C384.104 204.83 384.548 205.126 385.066 205.373C385.584 205.62 386.176 205.718 386.842 205.669C387.508 205.595 388.261 205.299 389.099 204.781C389.938 204.164 390.592 203.646 391.06 203.227C391.554 202.808 391.985 202.512 392.355 202.339C392.725 202.142 393.157 202.105 393.65 202.228L393.724 203.449C393.182 204.436 392.429 205.311 391.467 206.076C390.53 206.841 389.482 207.408 388.322 207.778C387.163 208.148 385.991 208.247 384.807 208.074C383.648 207.901 382.575 207.359 381.588 206.446ZM381.44 198.898C382.032 198.75 382.698 198.442 383.438 197.973C384.178 197.504 384.869 196.986 385.51 196.419C386.152 195.827 386.62 195.272 386.916 194.754C387.237 194.211 387.249 193.792 386.953 193.496C386.46 193.126 385.893 193.027 385.251 193.2C384.635 193.348 384.03 193.693 383.438 194.236C382.871 194.754 382.39 195.42 381.995 196.234C381.625 197.048 381.44 197.936 381.44 198.898ZM413.084 208.481C412.295 208.481 411.579 208.136 410.938 207.445C410.519 207.026 410.124 206.397 409.754 205.558C409.409 204.719 409.1 203.856 408.829 202.968C408.582 202.08 408.373 201.352 408.2 200.785C408.003 200.144 407.904 199.539 407.904 198.972C407.879 198.627 407.805 198.343 407.682 198.121C407.559 197.874 407.324 197.677 406.979 197.529C406.757 197.406 406.523 197.245 406.276 197.048C406.054 196.826 405.931 196.604 405.906 196.382C405.857 196.061 405.955 195.815 406.202 195.642C406.473 195.445 406.769 195.297 407.09 195.198C407.164 195.149 407.25 195.099 407.349 195.05C407.448 195.001 407.583 194.951 407.756 194.902C407.83 194.113 407.892 193.336 407.941 192.571C407.99 191.806 408.064 191.054 408.163 190.314C408.311 189.451 408.484 188.6 408.681 187.761C408.878 186.898 409.088 186.047 409.31 185.208C409.458 184.567 409.791 184.246 410.309 184.246C410.654 184.246 410.938 184.369 411.16 184.616C411.407 184.838 411.53 185.159 411.53 185.578C411.53 185.627 411.481 185.874 411.382 186.318C411.283 186.737 411.16 187.218 411.012 187.761C410.889 188.279 410.778 188.723 410.679 189.093C410.605 189.463 410.568 189.636 410.568 189.611C410.469 190.302 410.395 191.029 410.346 191.794C410.297 192.534 410.223 193.336 410.124 194.199C410.543 194.051 410.938 193.928 411.308 193.829C411.703 193.73 412.023 193.632 412.27 193.533C412.763 193.311 413.17 193.114 413.491 192.941C413.836 192.768 414.182 192.596 414.527 192.423C414.872 192.25 415.292 192.053 415.785 191.831C416.081 191.683 416.439 191.646 416.858 191.72C417.302 191.794 417.524 192.028 417.524 192.423C417.524 192.719 417.413 192.99 417.191 193.237C416.969 193.459 416.747 193.644 416.525 193.792C415.834 194.162 415.205 194.495 414.638 194.791C414.095 195.062 413.553 195.346 413.01 195.642C412.492 195.913 411.875 196.234 411.16 196.604C410.889 196.703 410.667 196.801 410.494 196.9C410.346 196.999 410.284 197.27 410.309 197.714C410.334 198.429 410.432 199.305 410.605 200.341C410.802 201.352 411.061 202.351 411.382 203.338C411.703 204.3 412.06 205.077 412.455 205.669C412.726 206.088 412.998 206.298 413.269 206.298C413.614 206.298 413.997 206.088 414.416 205.669C414.86 205.25 415.316 204.806 415.785 204.337C416.007 204.066 416.217 203.918 416.414 203.893C416.611 203.868 416.809 203.905 417.006 204.004C417.253 204.251 417.351 204.448 417.302 204.596C417.253 204.744 417.191 204.917 417.117 205.114C416.87 205.829 416.525 206.458 416.081 207.001C415.662 207.544 415.07 207.951 414.305 208.222C414.083 208.296 413.873 208.358 413.676 208.407C413.479 208.456 413.281 208.481 413.084 208.481ZM424.915 207.667C424.224 207.667 423.533 207.544 422.843 207.297C422.177 207.05 421.634 206.705 421.215 206.261C420.672 205.57 420.24 204.991 419.92 204.522C419.599 204.029 419.365 203.535 419.217 203.042C419.069 202.524 418.995 201.883 418.995 201.118C419.143 199.564 419.624 198.183 420.438 196.974C421.252 195.765 422.201 194.668 423.287 193.681C423.706 193.262 424.212 193.04 424.804 193.015C425.42 192.966 425.975 193.052 426.469 193.274C427.628 193.718 428.565 194.199 429.281 194.717C429.996 195.235 430.551 195.864 430.946 196.604C431.365 197.319 431.661 198.22 431.834 199.305C431.562 201.081 430.995 202.647 430.132 204.004C429.293 205.361 428.109 206.458 426.58 207.297C426.16 207.544 425.605 207.667 424.915 207.667ZM423.768 205.114C424.113 205.213 424.471 205.274 424.841 205.299C425.211 205.324 425.556 205.262 425.877 205.114C426.518 204.695 427.036 204.312 427.431 203.967C427.825 203.622 428.146 203.215 428.393 202.746C428.664 202.277 428.886 201.673 429.059 200.933C429.083 200.785 429.096 200.551 429.096 200.23C429.12 199.885 429.133 199.539 429.133 199.194C429.133 198.849 429.108 198.614 429.059 198.491C428.738 197.726 428.269 197.073 427.653 196.53C427.061 195.987 426.432 195.642 425.766 195.494C425.124 195.346 424.557 195.482 424.064 195.901C423.496 196.32 423.089 196.752 422.843 197.196C422.621 197.64 422.448 198.109 422.325 198.602C422.226 199.071 422.041 199.601 421.77 200.193C421.696 200.736 421.683 201.328 421.733 201.969C421.807 202.61 422.004 203.215 422.325 203.782C422.645 204.349 423.126 204.793 423.768 205.114ZM480.351 210.368C480.129 210.368 479.858 210.294 479.537 210.146C479.217 209.998 479.019 209.813 478.945 209.591C478.551 208.53 478.255 207.679 478.057 207.038C477.885 206.397 477.749 205.854 477.65 205.41C477.576 204.966 477.515 204.522 477.465 204.078C477.416 203.634 477.33 203.104 477.206 202.487C477.108 201.87 476.935 201.056 476.688 200.045C476.59 199.626 476.503 199.206 476.429 198.787C476.355 198.343 476.146 198.022 475.8 197.825C475.356 197.603 474.962 197.64 474.616 197.936C474.271 198.232 473.95 198.59 473.654 199.009C473.26 199.552 472.89 200.119 472.544 200.711C472.224 201.303 471.928 201.907 471.656 202.524C471.434 203.042 471.249 203.585 471.101 204.152C470.978 204.719 470.805 205.274 470.583 205.817C470.485 206.064 470.312 206.31 470.065 206.557C469.819 206.779 469.56 206.952 469.288 207.075C468.894 207.174 468.598 207.075 468.4 206.779C468.228 206.483 468.08 206.187 467.956 205.891C467.784 205.447 467.623 205.003 467.475 204.559C467.327 204.115 467.179 203.659 467.031 203.19L465.477 198.158C464.688 198.355 464.108 198.725 463.738 199.268C463.393 199.786 463.085 200.329 462.813 200.896C462.246 202.055 461.777 203.03 461.407 203.819C461.037 204.608 460.717 205.274 460.445 205.817C460.199 206.36 459.952 206.841 459.705 207.26C459.459 207.679 459.163 208.111 458.817 208.555C458.497 209.048 458.102 209.295 457.633 209.295C457.115 209.295 456.745 209.036 456.523 208.518C456.301 208.025 456.19 207.556 456.19 207.112C456.19 206.89 456.24 206.52 456.338 206.002C456.437 205.484 456.536 204.904 456.634 204.263C456.733 203.622 456.782 203.017 456.782 202.45C456.782 201.759 456.745 201.056 456.671 200.341C456.597 199.626 456.511 198.91 456.412 198.195C456.116 196.493 455.389 195.642 454.229 195.642C453.465 195.642 452.663 195.815 451.824 196.16C450.986 196.505 450.172 196.962 449.382 197.529C448.593 198.096 447.902 198.713 447.31 199.379C446.817 199.872 446.41 200.082 446.089 200.008C445.769 199.934 445.522 199.687 445.349 199.268C445.201 198.849 445.127 198.368 445.127 197.825C445.127 197.652 445.362 197.381 445.83 197.011C446.324 196.641 446.94 196.234 447.68 195.79C448.445 195.321 449.247 194.877 450.085 194.458C450.924 194.014 451.713 193.656 452.453 193.385C453.193 193.114 453.773 192.978 454.192 192.978C455.154 192.978 455.993 193.274 456.708 193.866C457.448 194.433 457.979 195.26 458.299 196.345C458.571 197.159 458.78 198.022 458.928 198.935C459.101 199.848 459.274 200.76 459.446 201.673C459.767 201.204 460.088 200.637 460.408 199.971C460.729 199.28 461.087 198.602 461.481 197.936C461.876 197.27 462.369 196.715 462.961 196.271C463.553 195.827 464.281 195.605 465.144 195.605C466.427 195.605 467.352 196.308 467.919 197.714C468.117 198.257 468.302 198.886 468.474 199.601C468.647 200.316 468.844 201.032 469.066 201.747C469.634 200.933 470.152 200.107 470.62 199.268C471.114 198.429 471.595 197.665 472.063 196.974C472.409 196.481 472.828 196.098 473.321 195.827C473.815 195.556 474.357 195.371 474.949 195.272L475.726 195.198C476.368 195.198 476.935 195.371 477.428 195.716C477.946 196.037 478.292 196.53 478.464 197.196C478.81 198.405 479.106 199.626 479.352 200.859C479.599 202.068 479.833 203.289 480.055 204.522C480.179 205.237 480.277 205.965 480.351 206.705C480.45 207.42 480.734 208.099 481.202 208.74C481.474 209.11 481.572 209.406 481.498 209.628C481.424 209.85 481.239 210.035 480.943 210.183L480.351 210.368ZM492.08 219.951C491.784 219.778 491.586 219.482 491.488 219.063C491.414 218.644 491.414 218.323 491.488 218.101C491.685 217.386 491.845 216.646 491.969 215.881C492.117 215.141 492.252 214.401 492.376 213.661C492.598 212.329 492.807 211.182 493.005 210.22C493.202 209.283 493.399 208.345 493.597 207.408C493.794 206.471 494.016 205.336 494.263 204.004C494.386 203.486 494.522 202.919 494.67 202.302C494.818 201.685 494.904 201.007 494.929 200.267C493.671 200.168 492.585 199.86 491.673 199.342C490.785 198.824 489.995 198.183 489.305 197.418C488.639 196.653 487.985 195.864 487.344 195.05C487.146 194.779 486.949 194.495 486.752 194.199C486.579 193.903 486.369 193.632 486.123 193.385C485.901 193.114 485.654 192.879 485.383 192.682C485.136 192.485 484.914 192.3 484.717 192.127C484.347 191.56 484.223 191.091 484.347 190.721C484.47 190.326 484.754 189.981 485.198 189.685C485.938 189.562 486.493 189.747 486.863 190.24C487.134 190.585 487.405 190.955 487.677 191.35C487.948 191.72 488.182 192.115 488.38 192.534C488.75 193.274 489.181 193.965 489.675 194.606C490.193 195.247 490.735 195.852 491.303 196.419C492.018 197.11 492.795 197.603 493.634 197.899C494.053 197.924 494.398 197.837 494.67 197.64C494.941 197.418 495.163 197.159 495.336 196.863C495.558 196.518 495.73 196.16 495.854 195.79C496.002 195.395 496.113 195.001 496.187 194.606C496.261 194.088 496.347 193.57 496.446 193.052C496.569 192.534 496.692 192.028 496.816 191.535C496.939 191.042 497.186 190.795 497.556 190.795C497.95 190.795 498.357 191.005 498.777 191.424C498.949 192.213 499.036 193.04 499.036 193.903C499.06 194.742 498.937 195.593 498.666 196.456C497.901 198.947 497.235 201.476 496.668 204.041C496.125 206.582 495.545 209.122 494.929 211.663C494.756 212.403 494.633 212.958 494.559 213.328C494.509 213.723 494.46 214.105 494.411 214.475C494.386 214.87 494.312 215.449 494.189 216.214C494.115 216.683 494.041 217.139 493.967 217.583C493.893 218.027 493.794 218.483 493.671 218.952C493.621 219.248 493.424 219.507 493.079 219.729C492.758 219.951 492.425 220.025 492.08 219.951ZM515.806 208C515.486 208 515.165 208 514.844 208C514.524 207.975 514.203 207.951 513.882 207.926C513.266 207.877 512.772 207.655 512.402 207.26C512.032 206.865 511.847 206.421 511.847 205.928C511.847 205.583 511.958 205.225 512.18 204.855C512.402 204.485 512.674 204.3 512.994 204.3C513.29 204.3 513.525 204.485 513.697 204.855C513.895 205.225 514.104 205.484 514.326 205.632C514.573 205.755 514.857 205.817 515.177 205.817C515.72 205.817 516.374 205.755 517.138 205.632C517.903 205.484 518.643 205.299 519.358 205.077C520.074 204.83 520.629 204.571 521.023 204.3C521.27 204.152 521.603 203.979 522.022 203.782C522.466 203.56 522.688 203.289 522.688 202.968C522.664 202.82 522.479 202.647 522.133 202.45C521.813 202.228 521.443 202.018 521.023 201.821C520.629 201.599 520.296 201.414 520.024 201.266C519.26 200.847 518.495 200.44 517.73 200.045C516.966 199.626 516.201 199.206 515.436 198.787C514.598 198.294 513.956 197.689 513.512 196.974C513.068 196.234 512.846 195.482 512.846 194.717C512.846 194.051 513.044 193.434 513.438 192.867C513.858 192.275 514.499 191.782 515.362 191.387C516.25 190.992 517.175 190.696 518.137 190.499C519.124 190.277 520.098 190.08 521.06 189.907C522.59 189.734 524.008 190.178 525.315 191.239C525.883 191.683 526.166 192.189 526.166 192.756C526.166 193.373 525.907 193.878 525.389 194.273C524.871 194.643 524.366 194.816 523.872 194.791C523.182 194.766 522.836 194.507 522.836 194.014C522.836 193.891 522.898 193.656 523.021 193.311C523.145 192.966 523.219 192.731 523.243 192.608C522.725 192.337 522.195 192.201 521.652 192.201C521.11 192.201 520.567 192.25 520.024 192.349C519.506 192.448 519.001 192.583 518.507 192.756C517.891 192.953 517.336 193.188 516.842 193.459C516.349 193.73 515.905 194.1 515.51 194.569C515.214 194.988 515.116 195.395 515.214 195.79C515.338 196.16 515.572 196.468 515.917 196.715C516.534 197.159 517.175 197.566 517.841 197.936C518.507 198.281 519.173 198.639 519.839 199.009C520.382 199.305 520.925 199.589 521.467 199.86C522.01 200.131 522.553 200.415 523.095 200.711C523.613 200.982 524.02 201.426 524.316 202.043C524.612 202.66 524.76 203.215 524.76 203.708C524.76 204.275 524.551 204.756 524.131 205.151C523.811 205.472 523.465 205.78 523.095 206.076C522.725 206.372 522.331 206.619 521.911 206.816C520.925 207.235 519.913 207.544 518.877 207.741C517.866 207.914 516.842 208 515.806 208ZM533.317 218.73C532.922 218.73 532.626 218.508 532.429 218.064C532.232 217.62 532.121 217.25 532.096 216.954C531.825 214.66 531.553 212.354 531.282 210.035C531.011 207.741 530.739 205.435 530.468 203.116C530.345 202.08 530.221 201.044 530.098 200.008C529.999 198.947 529.888 197.887 529.765 196.826C529.716 196.308 529.629 195.79 529.506 195.272C529.407 194.754 529.296 194.236 529.173 193.718C529.074 193.151 529.161 192.707 529.432 192.386C529.728 192.065 530.135 191.93 530.653 191.979C530.85 192.004 530.998 192.065 531.097 192.164C531.22 192.263 531.479 192.559 531.874 193.052C533.231 192.411 534.674 192.349 536.203 192.867C537.091 193.188 537.843 193.644 538.46 194.236C539.101 194.828 539.582 195.58 539.903 196.493C540.026 196.814 540.125 197.147 540.199 197.492C540.298 197.813 540.359 198.146 540.384 198.491C540.507 199.675 540.298 200.699 539.755 201.562C539.212 202.425 538.472 203.178 537.535 203.819C536.992 204.214 536.4 204.559 535.759 204.855C535.142 205.151 534.476 205.324 533.761 205.373C533.465 205.472 533.305 205.607 533.28 205.78C533.28 205.928 533.28 206.175 533.28 206.52C533.28 207.901 533.391 209.122 533.613 210.183C533.86 211.268 533.995 212.008 534.02 212.403C534.094 213.118 534.131 213.661 534.131 214.031C534.156 214.401 534.168 214.685 534.168 214.882C534.168 215.104 534.168 215.326 534.168 215.548C534.193 215.77 534.23 216.078 534.279 216.473C534.353 217.065 534.316 217.583 534.168 218.027C534.02 218.496 533.736 218.73 533.317 218.73ZM533.687 203.301C534.131 203.301 534.587 203.153 535.056 202.857C535.549 202.536 536.006 202.142 536.425 201.673C536.844 201.18 537.19 200.662 537.461 200.119C537.732 199.576 537.868 199.058 537.868 198.565C537.868 197.924 537.683 197.319 537.313 196.752C536.968 196.16 536.511 195.679 535.944 195.309C535.401 194.939 534.809 194.754 534.168 194.754C532.885 194.779 532.244 195.358 532.244 196.493C532.244 196.592 532.244 196.69 532.244 196.789C532.244 196.863 532.256 196.962 532.281 197.085C532.404 197.948 532.515 198.812 532.614 199.675C532.713 200.538 532.799 201.402 532.873 202.265C532.947 202.956 533.218 203.301 533.687 203.301ZM559.422 207.371C559.323 207.864 559.15 208.185 558.904 208.333C558.682 208.506 558.336 208.555 557.868 208.481C557.226 208.358 556.721 208.148 556.351 207.852C555.981 207.556 555.635 207.161 555.315 206.668C554.994 206.15 554.599 205.521 554.131 204.781C553.613 205.324 553.193 205.768 552.873 206.113C552.552 206.434 552.244 206.717 551.948 206.964C551.676 207.211 551.343 207.482 550.949 207.778C550.554 208.049 549.999 208.407 549.284 208.851C548.346 209.443 547.545 209.653 546.879 209.48C546.237 209.332 545.559 208.962 544.844 208.37C544.227 207.877 543.832 207.235 543.66 206.446C543.487 205.632 543.561 204.83 543.882 204.041C544.301 203.03 544.831 202.105 545.473 201.266C546.114 200.427 546.792 199.626 547.508 198.861C548.124 198.244 548.729 197.628 549.321 197.011C549.937 196.394 550.579 195.741 551.245 195.05C550.603 194.853 550.085 194.729 549.691 194.68C549.321 194.631 548.963 194.618 548.618 194.643C548.297 194.643 547.902 194.68 547.434 194.754C546.965 194.803 546.324 194.853 545.51 194.902C545.041 194.951 544.597 194.927 544.178 194.828C543.783 194.705 543.524 194.335 543.401 193.718C543.277 193.323 543.413 193.003 543.808 192.756C544.202 192.509 544.708 192.337 545.325 192.238C545.966 192.115 546.57 192.065 547.138 192.09C548.1 192.115 549.074 192.152 550.061 192.201C551.047 192.25 552.022 192.349 552.984 192.497C553.995 192.67 554.599 193.04 554.797 193.607C554.994 194.15 554.772 194.828 554.131 195.642C553.489 196.407 552.786 197.159 552.022 197.899C551.257 198.614 550.542 199.354 549.876 200.119C549.284 200.785 548.704 201.476 548.137 202.191C547.594 202.906 547.051 203.609 546.509 204.3C546.385 204.473 546.299 204.682 546.25 204.929C546.2 205.151 546.176 205.361 546.176 205.558C546.176 206.175 546.361 206.619 546.731 206.89C547.125 207.137 547.569 207.1 548.063 206.779C549 206.162 549.863 205.496 550.653 204.781C551.442 204.041 552.083 203.215 552.577 202.302C553.07 201.365 553.329 200.292 553.354 199.083C553.354 197.751 553.761 197.073 554.575 197.048C555.241 197.023 555.66 197.171 555.833 197.492C556.005 197.813 556.079 198.294 556.055 198.935C556.055 199.576 556.079 200.366 556.129 201.303C556.203 202.092 556.338 202.869 556.536 203.634C556.733 204.374 557.103 205.065 557.646 205.706C557.868 206.002 558.139 206.273 558.46 206.52C558.78 206.767 559.101 207.05 559.422 207.371ZM571.075 208.629C570.088 208.629 569.138 208.395 568.226 207.926C567.313 207.457 566.499 206.828 565.784 206.039C565.093 205.25 564.538 204.362 564.119 203.375C563.699 202.388 563.49 201.365 563.49 200.304C563.49 198.997 563.712 197.8 564.156 196.715C564.6 195.63 565.303 194.692 566.265 193.903C566.98 193.311 567.72 192.805 568.485 192.386C569.274 191.967 570.125 191.757 571.038 191.757C572.098 191.757 572.999 192.065 573.739 192.682C574.503 193.274 574.861 193.977 574.812 194.791C574.762 195.334 574.565 195.691 574.22 195.864C573.874 196.037 573.492 195.889 573.073 195.42C572.727 194.951 572.419 194.631 572.148 194.458C571.901 194.261 571.63 194.187 571.334 194.236C571.038 194.285 570.631 194.433 570.113 194.68C567.646 195.889 566.265 197.899 565.969 200.711C565.919 201.204 566.018 201.747 566.265 202.339C566.536 202.931 566.881 203.498 567.301 204.041C567.72 204.559 568.164 205.015 568.633 205.41C569.126 205.78 569.57 206.014 569.965 206.113C570.581 206.212 571.099 206.199 571.519 206.076C571.938 205.928 572.419 205.669 572.962 205.299C573.43 205.003 573.887 204.719 574.331 204.448C574.799 204.152 575.182 204.041 575.478 204.115C575.798 204.164 575.959 204.559 575.959 205.299C575.959 205.842 575.687 206.372 575.145 206.89C574.627 207.383 573.985 207.79 573.221 208.111C572.456 208.456 571.741 208.629 571.075 208.629ZM585.254 208.296C584.81 208.296 584.354 208.222 583.885 208.074C583.441 207.926 582.997 207.729 582.553 207.482C581.27 206.816 580.358 205.965 579.815 204.929C579.297 203.868 579.038 202.709 579.038 201.451C579.038 201.081 579.026 200.81 579.001 200.637C578.976 200.44 578.915 200.218 578.816 199.971C578.717 199.7 578.545 199.305 578.298 198.787C578.125 198.368 578.138 197.936 578.335 197.492C578.557 197.023 578.791 196.789 579.038 196.789C579.457 196.863 579.766 196.764 579.963 196.493C580.185 196.197 580.382 195.926 580.555 195.679C580.9 195.136 581.283 194.557 581.702 193.94C582.121 193.323 582.602 192.744 583.145 192.201C584.354 191.19 585.599 190.684 586.882 190.684C588.165 190.684 589.447 191.066 590.73 191.831C591.026 191.979 591.297 192.275 591.544 192.719C591.791 193.163 591.914 193.669 591.914 194.236C591.914 194.705 591.754 195.186 591.433 195.679C591.112 196.148 590.73 196.579 590.286 196.974C589.842 197.369 589.41 197.665 588.991 197.862C587.93 198.503 586.759 199.071 585.476 199.564C584.193 200.057 582.935 200.477 581.702 200.822C581.48 201.488 581.505 202.216 581.776 203.005C582.047 203.77 582.467 204.436 583.034 205.003C583.626 205.57 584.255 205.854 584.921 205.854C585.562 205.854 586.228 205.632 586.919 205.188C587.634 204.719 588.448 204.189 589.361 203.597C589.706 203.252 590.039 203.079 590.36 203.079C590.656 203.079 590.903 203.239 591.1 203.56C591.297 203.856 591.396 204.078 591.396 204.226C591.396 204.547 591.162 204.941 590.693 205.41C590.224 205.879 589.645 206.335 588.954 206.779C588.288 207.198 587.61 207.556 586.919 207.852C586.253 208.148 585.698 208.296 585.254 208.296ZM582.294 198.38C582.837 198.207 583.466 197.985 584.181 197.714C584.921 197.418 585.661 197.097 586.401 196.752C587.166 196.382 587.844 196 588.436 195.605C589.028 195.186 589.46 194.754 589.731 194.31C589.583 193.965 589.312 193.681 588.917 193.459C588.522 193.237 588.091 193.101 587.622 193.052C587.153 192.978 586.722 192.99 586.327 193.089C585.834 193.212 585.316 193.582 584.773 194.199C584.23 194.791 583.737 195.469 583.293 196.234C582.849 196.999 582.516 197.714 582.294 198.38ZM603.743 210.59H640.743V173.59H603.743V210.59Z" fill="#FF930F"/>
</g>
</g>
<defs>
<filter id="filter0_f_153_2" x="146.985" y="132.1" width="101.03" height="88.4021" filterUnits="userSpaceOnUse" color-interpolation-filters="sRGB">
<feFlood flood-opacity="0" result="BackgroundImageFix"/>
<feBlend mode="normal" in="SourceGraphic" in2="BackgroundImageFix" result="shape"/>
<feGaussianBlur stdDeviation="6.95" result="effect1_foregroundBlur_153_2"/>
</filter>
<filter id="filter1_f_153_2" x="394.985" y="71.1" width="101.03" height="88.4021" filterUnits="userSpaceOnUse" color-interpolation-filters="sRGB">
<feFlood flood-opacity="0" result="BackgroundImageFix"/>
<feBlend mode="normal" in="SourceGraphic" in2="BackgroundImageFix" result="shape"/>
<feGaussianBlur stdDeviation="6.95" result="effect1_foregroundBlur_153_2"/>
</filter>
<filter id="filter2_f_153_2" x="653.985" y="132.1" width="101.03" height="88.4021" filterUnits="userSpaceOnUse" color-interpolation-filters="sRGB">
<feFlood flood-opacity="0" result="BackgroundImageFix"/>
<feBlend mode="normal" in="SourceGraphic" in2="BackgroundImageFix" result="shape"/>
<feGaussianBlur stdDeviation="6.95" result="effect1_foregroundBlur_153_2"/>
</filter>
<filter id="filter3_f_153_2" x="829.03" y="32.1" width="63.9406" height="70.3117" filterUnits="userSpaceOnUse" color-interpolation-filters="sRGB">
<feFlood flood-opacity="0" result="BackgroundImageFix"/>
<feBlend mode="normal" in="SourceGraphic" in2="BackgroundImageFix" result="shape"/>
<feGaussianBlur stdDeviation="6.95" result="effect1_foregroundBlur_153_2"/>
</filter>
<filter id="filter4_f_153_2" x="-12.9703" y="42.1" width="63.9406" height="70.3117" filterUnits="userSpaceOnUse" color-interpolation-filters="sRGB">
<feFlood flood-opacity="0" result="BackgroundImageFix"/>
<feBlend mode="normal" in="SourceGraphic" in2="BackgroundImageFix" result="shape"/>
<feGaussianBlur stdDeviation="6.95" result="effect1_foregroundBlur_153_2"/>
</filter>
<filter id="filter5_f_153_2" x="500.03" y="-28.9" width="63.9406" height="70.3117" filterUnits="userSpaceOnUse" color-interpolation-filters="sRGB">
<feFlood flood-opacity="0" result="BackgroundImageFix"/>
<feBlend mode="normal" in="SourceGraphic" in2="BackgroundImageFix" result="shape"/>
<feGaussianBlur stdDeviation="6.95" result="effect1_foregroundBlur_153_2"/>
</filter>
<clipPath id="clip0_153_2">
<rect width="900" height="419" fill="white"/>
</clipPath>
<clipPath id="clip1_153_2">
<rect width="900" height="419" fill="white"/>
</clipPath>
</defs>
</svg>
