<svg width="900" height="600" viewBox="0 0 900 600" fill="none" xmlns="http://www.w3.org/2000/svg">
<g clip-path="url(#clip0_153_2)">
<g clip-path="url(#clip1_153_2)">
<path d="M900 0H0V599.002H900V0Z" fill="#001220"/>
<path d="M0 372.379L13.7 363.594C27.3 354.709 54.7 337.138 82 339.634C109.3 342.13 136.7 364.692 163.8 362.695C191 360.699 218 334.143 245.2 326.755C272.3 319.468 299.7 331.448 327 329.151C354.3 326.755 381.7 310.183 409 312.18C436.3 314.176 463.7 334.742 491 347.421C518.3 360.1 545.7 364.692 573 367.587C600.3 370.383 627.7 371.381 654.8 376.572C682 381.664 709 391.048 736.2 391.847C763.3 392.646 790.7 385.058 818 371.581C845.3 358.103 872.7 338.735 886.3 329.151L900 319.468V600H886.3C872.7 600 845.3 600 818 600C790.7 600 763.3 600 736.2 600C709 600 682 600 654.8 600C627.7 600 600.3 600 573 600C545.7 600 518.3 600 491 600C463.7 600 436.3 600 409 600C381.7 600 354.3 600 327 600C299.7 600 272.3 600 245.2 600C218 600 191 600 163.8 600C136.7 600 109.3 600 82 600C54.7 600 27.3 600 13.7 600H0V372.379Z" fill="#C62368"/>
<path d="M0 348.419L13.7 344.925C27.3 341.431 54.7 334.443 82 340.433C109.3 346.423 136.7 365.391 163.8 372.08C191 378.669 218 373.078 245.2 369.384C272.3 365.69 299.7 364.093 327 372.878C354.3 381.664 381.7 401.032 409 406.622C436.3 412.313 463.7 404.326 491 393.644C518.3 383.061 545.7 369.684 573 369.684C600.3 369.684 627.7 383.061 654.8 385.557C682 388.053 709 379.667 736.2 372.679C763.3 365.69 790.7 360.1 818 363.195C845.3 366.389 872.7 378.369 886.3 384.359L900 390.349V600H886.3C872.7 600 845.3 600 818 600C790.7 600 763.3 600 736.2 600C709 600 682 600 654.8 600C627.7 600 600.3 600 573 600C545.7 600 518.3 600 491 600C463.7 600 436.3 600 409 600C381.7 600 354.3 600 327 600C299.7 600 272.3 600 245.2 600C218 600 191 600 163.8 600C136.7 600 109.3 600 82 600C54.7 600 27.3 600 13.7 600H0V348.419Z" fill="#D93D67"/>
<path d="M0 424.292L13.7 420C27.3 415.607 54.7 407.021 82 401.031C109.3 395.041 136.7 391.647 163.8 390.848C191 390.05 218 391.647 245.2 393.544C272.3 395.341 299.7 397.337 327 391.647C354.3 386.056 381.7 372.678 409 370.183C436.3 367.687 463.7 376.073 491 385.058C518.3 394.043 545.7 403.627 573 404.525C600.3 405.324 627.7 397.337 654.8 388.552C682 379.667 709 370.083 736.2 364.592C763.3 359.101 790.7 357.703 818 359.6C845.3 361.397 872.7 366.389 886.3 368.885L900 371.381V600H886.3C872.7 600 845.3 600 818 600C790.7 600 763.3 600 736.2 600C709 600 682 600 654.8 600C627.7 600 600.3 600 573 600C545.7 600 518.3 600 491 600C463.7 600 436.3 600 409 600C381.7 600 354.3 600 327 600C299.7 600 272.3 600 245.2 600C218 600 191 600 163.8 600C136.7 600 109.3 600 82 600C54.7 600 27.3 600 13.7 600H0V424.292Z" fill="#E95667"/>
<path d="M0 403.328L13.7 406.123C27.3 409.018 54.7 414.609 82 418.103C109.3 421.597 136.7 422.995 163.8 418.103C191 413.311 218 402.33 245.2 397.538C272.3 392.646 299.7 394.043 327 402.13C354.3 410.316 381.7 425.291 409 437.072C436.3 448.952 463.7 457.538 491 457.937C518.3 458.236 545.7 450.25 573 446.256C600.3 442.263 627.7 442.263 654.8 436.273C682 430.283 709 418.303 736.2 411.614C763.3 405.025 790.7 403.627 818 411.115C845.3 418.602 872.7 434.975 886.3 443.062L900 451.248V600H886.3C872.7 600 845.3 600 818 600C790.7 600 763.3 600 736.2 600C709 600 682 600 654.8 600C627.7 600 600.3 600 573 600C545.7 600 518.3 600 491 600C463.7 600 436.3 600 409 600C381.7 600 354.3 600 327 600C299.7 600 272.3 600 245.2 600C218 600 191 600 163.8 600C136.7 600 109.3 600 82 600C54.7 600 27.3 600 13.7 600H0V403.328Z" fill="#F76D68"/>
<path d="M0 425.291L13.7 426.789C27.3 428.286 54.7 431.281 82 439.767C109.3 448.253 136.7 462.229 163.8 464.925C191 467.521 218 458.935 245.2 460.532C272.3 462.229 299.7 474.209 327 479.9C354.3 485.491 381.7 484.892 409 478.902C436.3 472.912 463.7 461.531 491 461.531C518.3 461.531 545.7 472.912 573 479.201C600.3 485.491 627.7 486.888 654.8 482.196C682 477.504 709 466.922 736.2 459.534C763.3 452.246 790.7 448.253 818 452.446C845.3 456.539 872.7 468.918 886.3 475.008L900 481.198V600H886.3C872.7 600 845.3 600 818 600C790.7 600 763.3 600 736.2 600C709 600 682 600 654.8 600C627.7 600 600.3 600 573 600C545.7 600 518.3 600 491 600C463.7 600 436.3 600 409 600C381.7 600 354.3 600 327 600C299.7 600 272.3 600 245.2 600C218 600 191 600 163.8 600C136.7 600 109.3 600 82 600C54.7 600 27.3 600 13.7 600H0V425.291Z" fill="#FA7268"/>
<path d="M0 509.151L13.7 505.857C27.3 502.463 54.7 495.874 82 494.376C109.3 492.879 136.7 496.473 163.8 492.978C191 489.484 218 478.902 245.2 479.501C272.3 480.2 299.7 492.18 327 493.877C354.3 495.474 381.7 486.889 409 479.501C436.3 472.213 463.7 466.223 491 463.028C518.3 459.933 545.7 459.534 573 459.434C600.3 459.235 627.7 459.235 654.8 459.734C682 460.233 709 461.231 736.2 462.23C763.3 463.228 790.7 464.226 818 463.527C845.3 462.928 872.7 460.533 886.3 459.434L900 458.236V600H886.3C872.7 600 845.3 600 818 600C790.7 600 763.3 600 736.2 600C709 600 682 600 654.8 600C627.7 600 600.3 600 573 600C545.7 600 518.3 600 491 600C463.7 600 436.3 600 409 600C381.7 600 354.3 600 327 600C299.7 600 272.3 600 245.2 600C218 600 191 600 163.8 600C136.7 600 109.3 600 82 600C54.7 600 27.3 600 13.7 600H0V509.151Z" fill="#F76D68"/>
<path d="M0 509.152L13.7 512.945C27.3 516.839 54.7 524.426 82 521.93C109.3 519.434 136.7 506.855 163.8 501.664C191 496.473 218 498.869 245.2 499.967C272.3 501.165 299.7 501.165 327 499.667C354.3 498.17 381.7 495.175 409 498.869C436.3 502.463 463.7 512.845 491 516.14C518.3 519.434 545.7 515.84 573 516.839C600.3 517.837 627.7 523.428 654.8 523.927C682 524.426 709 519.834 736.2 515.84C763.3 511.847 790.7 508.453 818 505.158C845.3 501.864 872.7 498.469 886.3 496.872L900 495.175V600H886.3C872.7 600 845.3 600 818 600C790.7 600 763.3 600 736.2 600C709 600 682 600 654.8 600C627.7 600 600.3 600 573 600C545.7 600 518.3 600 491 600C463.7 600 436.3 600 409 600C381.7 600 354.3 600 327 600C299.7 600 272.3 600 245.2 600C218 600 191 600 163.8 600C136.7 600 109.3 600 82 600C54.7 600 27.3 600 13.7 600H0V509.152Z" fill="#E95667"/>
<path d="M0 545.712L13.7 540.492C27.3 535.272 54.7 524.832 82 520.969C109.3 517.211 136.7 519.925 163.8 521.491C191 523.057 218 523.475 245.2 524.519C272.3 525.563 299.7 527.233 327 526.398C354.3 525.563 381.7 522.013 409 526.189C436.3 530.365 463.7 542.267 491 540.701C518.3 539.135 545.7 524.101 573 519.09C600.3 514.079 627.7 518.881 654.8 525.041C682 531.096 709 538.404 736.2 537.882C763.3 537.36 790.7 529.008 818 528.173C845.3 527.233 872.7 533.915 886.3 537.151L900 540.492V600H886.3C872.7 600 845.3 600 818 600C790.7 600 763.3 600 736.2 600C709 600 682 600 654.8 600C627.7 600 600.3 600 573 600C545.7 600 518.3 600 491 600C463.7 600 436.3 600 409 600C381.7 600 354.3 600 327 600C299.7 600 272.3 600 245.2 600C218 600 191 600 163.8 600C136.7 600 109.3 600 82 600C54.7 600 27.3 600 13.7 600H0V545.712Z" fill="#D93D67"/>
<path d="M0 565.058L13.7 564.06C27.3 563.062 54.7 561.065 82 561.265C109.3 561.364 136.7 563.76 163.8 563.561C191 563.361 218 560.765 245.2 561.265C272.3 561.764 299.7 565.358 327 565.358C354.3 565.358 381.7 561.764 409 562.263C436.3 562.762 463.7 567.354 491 566.855C518.3 566.356 545.7 560.765 573 560.266C600.3 559.767 627.7 564.359 654.8 566.057C682 567.754 709 566.356 736.2 567.354C763.3 568.353 790.7 571.747 818 570.25C845.3 568.752 872.7 562.363 886.3 559.268L900 556.073V600H886.3C872.7 600 845.3 600 818 600C790.7 600 763.3 600 736.2 600C709 600 682 600 654.8 600C627.7 600 600.3 600 573 600C545.7 600 518.3 600 491 600C463.7 600 436.3 600 409 600C381.7 600 354.3 600 327 600C299.7 600 272.3 600 245.2 600C218 600 191 600 163.8 600C136.7 600 109.3 600 82 600C54.7 600 27.3 600 13.7 600H0V565.058Z" fill="#C62368"/>
<g filter="url(#filter0_f_153_2)">
<path d="M197.5 146L206.144 169.148H234.116L211.486 183.454L220.13 206.602L197.5 192.296L174.87 206.602L183.514 183.454L160.884 169.148H188.856L197.5 146Z" fill="#FF1B6B" fill-opacity="0.71"/>
</g>
<g filter="url(#filter1_f_153_2)">
<path d="M450.5 206L459.144 229.148H487.116L464.486 243.454L473.13 266.602L450.5 252.296L427.87 266.602L436.514 243.454L413.884 229.148H441.856L450.5 206Z" fill="#BF0FFF"/>
</g>
<g filter="url(#filter2_f_153_2)">
<path d="M704.5 146L713.144 169.148H741.116L718.486 183.454L727.13 206.602L704.5 192.296L681.87 206.602L690.514 183.454L667.884 169.148H695.856L704.5 146Z" fill="#FF930F"/>
</g>
<path d="M202.655 235C202.005 235 201.68 234.675 201.68 234.025V183.988C201.68 183.338 202.005 183.013 202.655 183.013H213.692C214.342 183.013 214.667 183.338 214.667 183.988V202.513H224.3V183.988C224.3 183.338 224.625 183.013 225.275 183.013H236.312C236.962 183.013 237.287 183.338 237.287 183.988V234.025C237.287 234.675 236.962 235 236.312 235H225.275C224.625 235 224.3 234.675 224.3 234.025V212.887H214.667V234.025C214.667 234.675 214.342 235 213.692 235H202.655ZM247.596 235C246.946 235 246.621 234.675 246.621 234.025V193.075C246.621 192.425 246.946 192.1 247.596 192.1H257.97C258.62 192.1 258.945 192.425 258.945 193.075V234.025C258.945 234.675 258.62 235 257.97 235H247.596ZM247.401 188.863C246.881 188.863 246.621 188.603 246.621 188.083V183.13C246.621 182.61 246.881 182.35 247.401 182.35H258.243C258.711 182.35 258.945 182.61 258.945 183.13V188.083C258.945 188.603 258.711 188.863 258.243 188.863H247.401ZM268.416 242.02C267.714 242.02 267.363 241.669 267.363 240.967V235.507C267.363 234.831 267.714 234.493 268.416 234.493H271.263C272.043 234.493 272.433 234.168 272.433 233.518V232.348H267.441C266.791 232.348 266.466 231.997 266.466 231.295L266.544 221.428C266.544 220.726 266.882 220.375 267.558 220.375H279.921C280.571 220.375 280.896 220.726 280.896 221.428V233.362C280.896 236.274 280.207 238.445 278.829 239.875C277.451 241.305 275.605 242.02 273.291 242.02H268.416ZM302.059 235C301.409 235 301.084 234.675 301.084 234.025V183.988C301.084 183.338 301.409 183.013 302.059 183.013H313.096C313.746 183.013 314.071 183.338 314.071 183.988V234.025C314.071 234.675 313.746 235 313.096 235H302.059ZM345.569 235C344.971 235 344.451 234.779 344.009 234.337L336.209 226.537C335.767 226.121 335.546 225.601 335.546 224.977V202.123C335.546 201.499 335.767 200.979 336.209 200.563L344.009 192.763C344.451 192.321 344.971 192.1 345.569 192.1H366.434C367.084 192.1 367.409 192.425 367.409 193.075V234.025C367.409 234.675 367.084 235 366.434 235H358.322C357.984 235 357.724 234.935 357.542 234.805C357.386 234.675 357.204 234.519 356.996 234.337L355.046 232.387L353.096 234.337C352.68 234.779 352.16 235 351.536 235H345.569ZM350.132 225.913H352.862C353.694 225.913 354.266 225.744 354.578 225.406C354.89 225.068 355.046 224.47 355.046 223.612V201.187H350.132C349.274 201.187 348.689 201.356 348.377 201.694C348.065 202.032 347.909 202.63 347.909 203.488V223.612C347.909 224.47 348.065 225.068 348.377 225.406C348.689 225.744 349.274 225.913 350.132 225.913ZM377.469 235C376.819 235 376.494 234.675 376.494 234.025V193.075C376.494 192.425 376.819 192.1 377.469 192.1H395.214C395.812 192.1 396.332 192.321 396.774 192.763L401.571 197.56H403.014L407.811 192.763C408.253 192.321 408.773 192.1 409.371 192.1H417.834C418.432 192.1 418.952 192.321 419.394 192.763L427.194 200.563C427.636 200.979 427.857 201.499 427.857 202.123V234.025C427.857 234.675 427.532 235 426.882 235H416.469C415.819 235 415.494 234.675 415.494 234.025V203.488C415.494 202.396 414.948 201.85 413.856 201.85H408.357V234.025C408.357 234.675 408.032 235 407.382 235H396.969C396.319 235 395.994 234.675 395.994 234.025V203.488C395.994 202.396 395.448 201.85 394.356 201.85H388.857V234.025C388.857 234.675 388.532 235 387.882 235H377.469ZM450.366 235C449.716 235 449.391 234.675 449.391 234.025V191.71C449.391 191.112 449.612 190.592 450.054 190.15L456.528 183.637C456.97 183.221 457.49 183.013 458.088 183.013H467.019C467.617 183.013 468.137 183.221 468.579 183.637L475.131 190.228H476.964L483.516 183.637C483.958 183.221 484.478 183.013 485.076 183.013H493.968C494.592 183.013 495.112 183.221 495.528 183.637L502.041 190.15C502.483 190.592 502.704 191.112 502.704 191.71V234.025C502.704 234.675 502.379 235 501.729 235H490.653C490.003 235 489.678 234.675 489.678 234.025V193.387H482.541V234.025C482.541 234.675 482.216 235 481.566 235H470.529C469.879 235 469.554 234.675 469.554 234.025V193.387H462.378V234.025C462.378 234.675 462.053 235 461.403 235H450.366ZM521.83 235C521.232 235 520.712 234.779 520.27 234.337L512.47 226.537C512.028 226.121 511.807 225.601 511.807 224.977V202.123C511.807 201.499 512.028 200.979 512.47 200.563L520.27 192.763C520.712 192.321 521.232 192.1 521.83 192.1H542.695C543.345 192.1 543.67 192.425 543.67 193.075V234.025C543.67 234.675 543.345 235 542.695 235H534.583C534.245 235 533.985 234.935 533.803 234.805C533.647 234.675 533.465 234.519 533.257 234.337L531.307 232.387L529.357 234.337C528.941 234.779 528.421 235 527.797 235H521.83ZM526.393 225.913H529.123C529.955 225.913 530.527 225.744 530.839 225.406C531.151 225.068 531.307 224.47 531.307 223.612V201.187H526.393C525.535 201.187 524.95 201.356 524.638 201.694C524.326 202.032 524.17 202.63 524.17 203.488V223.612C524.17 224.47 524.326 225.068 524.638 225.406C524.95 225.744 525.535 225.913 526.393 225.913ZM553.731 235C553.081 235 552.756 234.675 552.756 234.025V193.075C552.756 192.425 553.081 192.1 553.731 192.1H574.596C575.194 192.1 575.714 192.321 576.156 192.763L583.956 200.563C584.398 200.979 584.619 201.499 584.619 202.123V234.025C584.619 234.675 584.294 235 583.644 235H573.231C572.581 235 572.256 234.675 572.256 234.025V203.683C572.256 202.461 571.645 201.85 570.423 201.85H565.119V234.025C565.119 234.675 564.794 235 564.144 235H553.731ZM603.487 235C602.889 235 602.369 234.779 601.927 234.337L594.127 226.537C593.685 226.121 593.464 225.601 593.464 224.977V202.123C593.464 201.499 593.685 200.979 594.127 200.563L601.927 192.763C602.369 192.321 602.889 192.1 603.487 192.1H624.352C625.002 192.1 625.327 192.425 625.327 193.075V234.025C625.327 234.675 625.002 235 624.352 235H616.24C615.902 235 615.642 234.935 615.46 234.805C615.304 234.675 615.122 234.519 614.914 234.337L612.964 232.387L611.014 234.337C610.598 234.779 610.078 235 609.454 235H603.487ZM608.05 225.913H610.78C611.612 225.913 612.184 225.744 612.496 225.406C612.808 225.068 612.964 224.47 612.964 223.612V201.187H608.05C607.192 201.187 606.607 201.356 606.295 201.694C605.983 202.032 605.827 202.63 605.827 203.488V223.612C605.827 224.47 605.983 225.068 606.295 225.406C606.607 225.744 607.192 225.913 608.05 225.913ZM634.178 235C633.528 235 633.203 234.675 633.203 234.025V227.707C633.203 227.109 633.398 226.719 633.788 226.537L641.744 221.818V217.762L633.788 213.472C633.398 213.238 633.203 212.835 633.203 212.263V199.822C633.203 199.536 633.242 199.302 633.32 199.12C633.424 198.938 633.567 198.782 633.749 198.652L642.056 192.568C642.342 192.36 642.576 192.23 642.758 192.178C642.94 192.126 643.122 192.1 643.304 192.1H652.781C653.431 192.1 653.756 192.425 653.756 193.075V199.198C653.756 199.64 653.717 199.939 653.639 200.095C653.587 200.251 653.457 200.381 653.249 200.485L645.878 204.463V208.987L653.756 212.887C654.198 213.069 654.419 213.459 654.419 214.057V226.03C654.419 226.68 654.198 227.2 653.756 227.59L645.449 234.493C645.033 234.831 644.513 235 643.889 235H634.178ZM672.346 235C671.748 235 671.228 234.779 670.786 234.337L662.986 226.537C662.544 226.121 662.323 225.601 662.323 224.977V193.075C662.323 192.425 662.648 192.1 663.298 192.1H673.711C674.361 192.1 674.686 192.425 674.686 193.075V225.25H681.823V193.075C681.823 192.425 682.148 192.1 682.798 192.1H693.211C693.861 192.1 694.186 192.425 694.186 193.075V224.977C694.186 225.601 693.965 226.121 693.523 226.537L685.723 234.337C685.307 234.779 684.787 235 684.163 235H672.346ZM704.247 235C703.597 235 703.272 234.675 703.272 234.025V193.075C703.272 192.425 703.597 192.1 704.247 192.1H714.621C715.271 192.1 715.596 192.425 715.596 193.075V234.025C715.596 234.675 715.271 235 714.621 235H704.247ZM704.052 188.863C703.532 188.863 703.272 188.603 703.272 188.083V183.13C703.272 182.61 703.532 182.35 704.052 182.35H714.894C715.362 182.35 715.596 182.61 715.596 183.13V188.083C715.596 188.603 715.362 188.863 714.894 188.863H704.052Z" fill="white"/>
<g filter="url(#filter3_f_153_2)">
<path d="M861 46L865.266 62.2381H879.07L867.902 72.2738L872.168 88.5119L861 78.4762L849.832 88.5119L854.098 72.2738L842.93 62.2381H856.734L861 46Z" fill="white"/>
</g>
<g filter="url(#filter4_f_153_2)">
<path d="M19 56L23.2658 72.2381H37.0701L25.9022 82.2738L30.1679 98.5119L19 88.4762L7.83208 98.5119L12.0978 82.2738L0.929926 72.2381H14.7342L19 56Z" fill="white"/>
</g>
<g filter="url(#filter5_f_153_2)">
<path d="M532 -15L536.266 1.2381H550.07L538.902 11.2738L543.168 27.5119L532 17.4762L520.832 27.5119L525.098 11.2738L513.93 1.2381H527.734L532 -15Z" fill="white"/>
</g>
<path d="M648.488 256.521C650.586 256.055 652.684 255.589 665.304 252.901C677.923 250.213 701.001 245.318 715.687 242.679C730.373 240.041 735.967 239.808 738.15 239.688C738.942 239.644 721.408 243.764 696.572 250.354C686.811 252.944 684.528 254.395 682.992 255.338C677.711 258.579 703.29 254.409 710.608 253.699C708.135 254.388 701.729 256.274 697.144 258.04C695.124 258.64 693.725 258.64 692.284 258.64" stroke="#B69393" stroke-width="2" stroke-linecap="round"/>
</g>
</g>
<defs>
<filter id="filter0_f_153_2" x="146.985" y="132.1" width="101.03" height="88.4021" filterUnits="userSpaceOnUse" color-interpolation-filters="sRGB">
<feFlood flood-opacity="0" result="BackgroundImageFix"/>
<feBlend mode="normal" in="SourceGraphic" in2="BackgroundImageFix" result="shape"/>
<feGaussianBlur stdDeviation="6.95" result="effect1_foregroundBlur_153_2"/>
</filter>
<filter id="filter1_f_153_2" x="399.985" y="192.1" width="101.03" height="88.4021" filterUnits="userSpaceOnUse" color-interpolation-filters="sRGB">
<feFlood flood-opacity="0" result="BackgroundImageFix"/>
<feBlend mode="normal" in="SourceGraphic" in2="BackgroundImageFix" result="shape"/>
<feGaussianBlur stdDeviation="6.95" result="effect1_foregroundBlur_153_2"/>
</filter>
<filter id="filter2_f_153_2" x="653.985" y="132.1" width="101.03" height="88.4021" filterUnits="userSpaceOnUse" color-interpolation-filters="sRGB">
<feFlood flood-opacity="0" result="BackgroundImageFix"/>
<feBlend mode="normal" in="SourceGraphic" in2="BackgroundImageFix" result="shape"/>
<feGaussianBlur stdDeviation="6.95" result="effect1_foregroundBlur_153_2"/>
</filter>
<filter id="filter3_f_153_2" x="829.03" y="32.1" width="63.9406" height="70.3117" filterUnits="userSpaceOnUse" color-interpolation-filters="sRGB">
<feFlood flood-opacity="0" result="BackgroundImageFix"/>
<feBlend mode="normal" in="SourceGraphic" in2="BackgroundImageFix" result="shape"/>
<feGaussianBlur stdDeviation="6.95" result="effect1_foregroundBlur_153_2"/>
</filter>
<filter id="filter4_f_153_2" x="-12.9703" y="42.1" width="63.9406" height="70.3117" filterUnits="userSpaceOnUse" color-interpolation-filters="sRGB">
<feFlood flood-opacity="0" result="BackgroundImageFix"/>
<feBlend mode="normal" in="SourceGraphic" in2="BackgroundImageFix" result="shape"/>
<feGaussianBlur stdDeviation="6.95" result="effect1_foregroundBlur_153_2"/>
</filter>
<filter id="filter5_f_153_2" x="500.03" y="-28.9" width="63.9406" height="70.3117" filterUnits="userSpaceOnUse" color-interpolation-filters="sRGB">
<feFlood flood-opacity="0" result="BackgroundImageFix"/>
<feBlend mode="normal" in="SourceGraphic" in2="BackgroundImageFix" result="shape"/>
<feGaussianBlur stdDeviation="6.95" result="effect1_foregroundBlur_153_2"/>
</filter>
<clipPath id="clip0_153_2">
<rect width="900" height="600" fill="white"/>
</clipPath>
<clipPath id="clip1_153_2">
<rect width="900" height="600" fill="white"/>
</clipPath>
</defs>
</svg>
